HIERARCHY
ROOT Hips
{
  OFFSET 62.8532 80.5017 12.9801
  CHANNELS 6 Xposition Yposition Zposition Zrotation Xrotation Yrotation
  JOINT spine
  {
    OFFSET 0 6.84637 0.3937
    CHANNELS 3 Zrotation Xrotation Yrotation
    JOINT spine1
    {
      OFFSET 0 9.49621 0
      CHANNELS 3 Zrotation Xrotation Yrotation
      JOINT spine2
      {
        OFFSET 0 9.09909 0
        CHANNELS 3 Zrotation Xrotation Yrotation
        JOINT Neck
        {
          OFFSET 0 23.3612 1.11378
          CHANNELS 3 Zrotation Xrotation Yrotation
          JOINT Head
          {
            OFFSET 0 7.05802 0
            CHANNELS 3 Zrotation Xrotation Yrotation
            End Site
            {
              OFFSET 0 17.0844 -5.63419
            }
          }
        }
        JOINT RightShoulder
        {
          OFFSET -3.83136 9.82631 -0.533491
          CHANNELS 3 Zrotation Xrotation Yrotation
          JOINT RightArm
          {
            OFFSET 0 12.8881 0
            CHANNELS 3 Zrotation Xrotation Yrotation
            JOINT RightArmRoll
            {
              OFFSET 0 6.50617 0
              CHANNELS 3 Zrotation Xrotation Yrotation
              JOINT RightForeArm
              {
                OFFSET 0 18.9501 0
                CHANNELS 3 Zrotation Xrotation Yrotation
                JOINT RightForeArmRoll
                {
                  OFFSET 0 7.30092 0
                  CHANNELS 3 Zrotation Xrotation Yrotation
                  JOINT RightHand
                  {
                    OFFSET 0 14.6514 0
                    CHANNELS 3 Zrotation Xrotation Yrotation
                    End Site
                    {
                      OFFSET 0 0 0
                    }
                  }
                }
              }
            }
          }
        }
        JOINT LeftShoulder
        {
          OFFSET 3.83136 9.82631 -0.533491
          CHANNELS 3 Zrotation Xrotation Yrotation
          JOINT LeftArm
          {
            OFFSET 0 12.8881 0
            CHANNELS 3 Zrotation Xrotation Yrotation
            JOINT LeftArmRoll
            {
              OFFSET 0 6.50616 0
              CHANNELS 3 Zrotation Xrotation Yrotation
              JOINT LeftForeArm
              {
                OFFSET 0 18.9501 0
                CHANNELS 3 Zrotation Xrotation Yrotation
                JOINT LeftForeArmRoll
                {
                  OFFSET 0 7.30092 0
                  CHANNELS 3 Zrotation Xrotation Yrotation
                  JOINT LeftHand
                  {
                    OFFSET 0 14.6514 0
                    CHANNELS 3 Zrotation Xrotation Yrotation
                    End Site
                    {
                      OFFSET 0 0 0
                    }
                  }
                }
              }
            }
          }
        }
      }
    }
  }
  JOINT RightUpLeg
  {
    OFFSET -6.06837 -1.11278 -0.933477
    CHANNELS 3 Zrotation Xrotation Yrotation
    JOINT RightUpLegRoll
    {
      OFFSET 0 17.1796 0
      CHANNELS 3 Zrotation Xrotation Yrotation
      JOINT RightLeg
      {
        OFFSET 0 -21.2743 0
        CHANNELS 3 Zrotation Xrotation Yrotation
        JOINT RightLegRoll
        {
          OFFSET 0 21.3439 0
          CHANNELS 3 Zrotation Xrotation Yrotation
          JOINT RightFoot
          {
            OFFSET 0 17.7652 0
            CHANNELS 3 Zrotation Xrotation Yrotation
            JOINT RightToeBase
            {
              OFFSET 0 14.8508 0
              CHANNELS 3 Zrotation Xrotation Yrotation
              End Site
              {
                OFFSET 0.0062947 7.19213 -0.829005
              }
            }
          }
        }
      }
    }
  }
  JOINT LeftUpLeg
  {
    OFFSET 6.06837 -1.11278 -0.933477
    CHANNELS 3 Zrotation Xrotation Yrotation
    JOINT LeftUpLegRoll
    {
      OFFSET 0 17.1797 0
      CHANNELS 3 Zrotation Xrotation Yrotation
      JOINT LeftLeg
      {
        OFFSET 0 21.2742 0
        CHANNELS 3 Zrotation Xrotation Yrotation
        JOINT LeftLegRoll
        {
          OFFSET 0 21.5412 0
          CHANNELS 3 Zrotation Xrotation Yrotation
          JOINT LeftFoot
          {
            OFFSET 0 17.5679 0
            CHANNELS 3 Zrotation Xrotation Yrotation
            JOINT LeftToeBase
            {
              OFFSET 0 14.8508 0
              CHANNELS 3 Zrotation Xrotation Yrotation
              End Site
              {
                OFFSET -0.0282102 7.19214 -0.829005
              }
            }
          }
        }
      }
    }
  }
}
MOTION
Frames: 6
Frame Time: 0.00208333
58.768 90.8702 2.70467 -1.92814 0.0166935 -11.7167 0.291218 -0.273654 0.255745 0.582037 3.45671 0.482237 0.576931 5.10171 0.473243 -7.73999 43.8726 7.40165 2.63734 -8.97376 3.53894 63.0396 13.5402 7.13191 105.853 20.8745 -43.9257 1.87325e-006 3.44318e-006 -2.31487e-006 5.0302 76.037 -6.02686 -7.74096e-006 -5.05282e-006 -3 8.03022 -4.95096 0.697554 -63.3777 0.527968 0.223258 -90.7045 7.78084 21.3676 -4.13455e-006 -1.24657e-006 6.96602e-006 156.447 80.8195 -145.709 5.45497e-006 1.31608e-005 2.99999 -8.03021 -4.95123 -0.697608 174.034 11.5799 1.74871 180 7.0156e-015 178.981 178.145 8.40983 179.799 6.45113e-007 2.87007e-007 -0.0348432 -16.412 64.6576 17.1124 8.12778 25.2331 -3.48402 -175.218 8.78284 -2.03003 4.54188e-006 -4.6773e-006 -1.02472 -4.15355 -15.8943 -0.0719746 2.93381e-006 1.23006e-006 -0.219813 19.3845 68.9302 -20.3306 -8.13649 25.2327 3.48773 
58.7807 90.8727 2.6981 -1.92602 0.0375668 -11.7934 0.297334 -0.272163 0.254818 0.59425 3.4597 0.479123 0.589205 5.1047 0.4699 -7.69974 43.8438 7.55395 2.40741 -9.05331 3.67568 63.0033 13.5326 7.13747 105.788 20.7099 -43.7489 1.87325e-006 3.44318e-006 -2.31487e-006 4.81685 76.1529 -5.88759 -7.74096e-006 -5.05282e-006 -3 8.03022 -4.95096 0.697554 -63.401 0.515949 0.2329 -90.9968 7.67934 21.5976 -4.13455e-006 -1.24657e-006 6.96602e-006 156.454 80.6814 -145.619 5.45497e-006 1.31608e-005 2.99999 -8.03021 -4.95123 -0.697608 174.024 11.6721 1.76116 180 7.0156e-015 178.981 178.143 8.52305 179.796 6.45113e-007 2.87007e-007 -0.0317529 -16.4166 64.6664 17.1187 8.12778 25.2331 -3.48402 -175.21 8.80761 -2.04843 4.54188e-006 -4.6773e-006 -1.02472 -4.1729 -15.9232 -0.0753407 2.93381e-006 1.23006e-006 -0.219813 19.3916 68.9379 -20.3388 -8.13649 25.2327 3.48773 
58.7836 90.8656 2.69153 -1.92414 0.0587759 -11.871 0.303588 -0.270624 0.253904 0.606718 3.46279 0.476014 0.601735 5.10779 0.466556 -7.66247 43.8127 7.70703 2.18094 -9.13134 3.81265 62.9627 13.5252 7.1443 105.727 20.544 -43.5704 1.87325e-006 3.44318e-006 -2.31487e-006 4.60707 76.2675 -5.75101 -7.74096e-006 -5.05282e-006 -3 8.03022 -4.95096 0.697554 -63.4261 0.502975 0.243304 -91.2876 7.57675 21.823 -4.13455e-006 -1.24657e-006 6.96602e-006 156.471 80.5403 -145.538 5.45497e-006 1.31608e-005 2.99999 -8.03021 -4.95123 -0.697608 174.016 11.7654 1.7732 180 7.0156e-015 178.981 178.141 8.63665 179.794 6.45113e-007 2.87008e-007 -0.0286179 -16.4214 64.6753 17.1251 8.12778 25.2331 -3.48402 -175.201 8.83288 -2.06718 4.54188e-006 -4.6773e-006 -1.02472 -4.1925 -15.9525 -0.0787414 2.93381e-006 1.23006e-006 -0.219813 19.3987 68.9457 -20.3472 -8.13649 25.2327 3.48773 
58.7944 90.8526 2.68825 -1.92242 0.0802159 -11.9494 0.309939 -0.269053 0.252997 0.619366 3.46595 0.472909 0.614446 5.11094 0.463212 -7.62721 43.7799 7.8606 1.957 -9.2083 3.94981 62.9191 13.5179 7.15202 105.671 20.377 -43.391 1.87325e-006 3.44318e-006 -2.31487e-006 4.39917 76.381 -5.61571 -7.74096e-006 -5.05282e-006 -3 8.03022 -4.95096 0.697554 -63.4525 0.489332 0.254241 -91.577 7.47345 22.0451 -4.13455e-006 -1.24657e-006 6.96602e-006 156.497 80.3972 -145.465 5.45497e-006 1.31608e-005 2.99999 -8.03021 -4.95123 -0.697608 174.007 11.8595 1.78497 180 7.0156e-015 178.981 178.139 8.75054 179.791 6.45113e-007 2.87008e-007 -0.0254518 -16.4263 64.6843 17.1315 8.12778 25.2331 -3.48402 -175.192 8.85849 -2.08616 4.54188e-006 -4.6773e-006 -1.02472 -4.21228 -15.9822 -0.0821667 2.93381e-006 1.23006e-006 -0.219813 19.4059 68.9536 -20.3556 -8.13649 25.2327 3.48773 
58.7981 90.8551 2.70991 -1.92076 0.101782 -12.0282 0.316345 -0.267462 0.252096 0.632117 3.46914 0.469805 0.627259 5.11413 0.459868 -7.59299 43.746 8.01438 1.73467 -9.2846 4.0871 62.8738 13.5108 7.16024 105.617 20.2089 -43.2114 1.87325e-006 3.44318e-006 -2.31487e-006 4.1914 76.4939 -5.48023 -7.74096e-006 -5.05282e-006 -3 8.03022 -4.95096 0.697554 -63.4796 0.475307 0.265483 -91.8654 7.36982 22.2655 -4.13455e-006 -1.24657e-006 6.96602e-006 156.528 80.253 -145.397 5.45497e-006 1.31608e-005 2.99999 -8.03021 -4.95123 -0.697608 173.999 11.954 1.79658 180 7.0156e-015 178.98 178.137 8.86456 179.789 6.45113e-007 2.87008e-007 -0.0222678 -16.4312 64.6934 17.138 8.12778 25.2331 -3.48402 -175.184 8.8843 -2.10528 4.54188e-006 -4.6773e-006 -1.02472 -4.23216 -16.012 -0.0856063 2.93381e-006 1.23006e-006 -0.219813 19.4132 68.9616 -20.3642 -8.13649 25.2327 3.48773 
58.8124 90.8471 2.70474 -1.91907 0.123371 -12.107 0.322764 -0.265867 0.251195 0.644893 3.47234 0.466702 0.640098 5.11733 0.456524 -7.55886 43.7117 8.16807 1.51301 -9.36067 4.22448 62.8281 13.5036 7.16859 105.564 20.0397 -43.0324 1.87325e-006 3.44318e-006 -2.31487e-006 3.98194 76.6066 -5.34304 -7.74096e-006 -5.05282e-006 -3 8.03022 -4.95096 0.697554 -63.5068 0.461187 0.276801 -92.1529 7.26625 22.4854 -4.13455e-006 -1.24657e-006 6.96602e-006 156.561 80.1085 -145.331 5.45497e-006 1.31608e-005 2.99999 -8.03021 -4.95123 -0.697608 173.991 12.0486 1.80817 180 7.0156e-015 178.98 178.134 8.97865 179.786 6.45113e-007 2.87008e-007 -0.0190793 -16.4362 64.7026 17.1446 8.12778 25.2331 -3.48402 -175.175 8.91015 -2.12444 4.54188e-006 -4.6773e-006 -1.02472 -4.25207 -16.0419 -0.0890504 2.93381e-006 1.23006e-006 -0.219813 19.4205 68.9695 -20.3727 -8.13649 25.2327 3.48773 
